Coordinates
version=1
nRows=16
nColumns=36
inDegrees=yes

Units are S.I. units (second, meters, Newtons, ...)
If the header above contains a line with 'inDegrees', this indicates whether rotational values are in degrees (yes) or radians (no).

endheader
time	pelvis_tilt	pelvis_list	pelvis_rotation	pelvis_tx	pelvis_ty	pelvis_tz	hip_flexion_r	hip_adduction_r	hip_rotation_r	knee_angle_r	knee_angle_r_beta	ankle_angle_r	subtalar_angle_r	mtp_angle_r	hip_flexion_l	hip_adduction_l	hip_rotation_l	knee_angle_l	knee_angle_l_beta	ankle_angle_l	subtalar_angle_l	mtp_angle_l	lumbar_extension	lumbar_bending	lumbar_rotation	arm_flex_r	arm_add_r	arm_rot_r	elbow_flex_r	pro_sup_r	arm_flex_l	arm_add_l	arm_rot_l	elbow_flex_l	pro_sup_l
      0.00000000	     -2.63056850	     -1.39404607	     -2.14016765	      0.17140948	      0.94377882	     -0.14486116	     29.23240729	     -5.65680832	     -2.75088637	      9.71386291	      0.16953889	     -5.36571600	     -6.88119719	     -6.50087631	     11.95430811	      2.14423466	      2.00932706	     22.27042776	      0.38869229	      4.42924548	     -6.85710417	     -6.50087631	    -10.89792590	      1.32950161	     -3.33549038	     44.68833515	     11.14055823	     63.45148978	    125.53147638	    106.76360986	     56.88615596	      7.06934820	     68.54536056	    122.27162045	     95.08674376
      0.01666670	     -3.08856009	     -1.53902315	     -2.68321492	      0.17336669	      0.93894742	     -0.14512503	     27.98366315	     -5.66835031	     -0.59598102	      5.59057201	      0.09757389	     -5.33019660	     -4.77382994	     -6.64697307	     12.26787066	      2.57561584	      4.03555698	     21.92463888	      0.38265714	      5.56495944	     -6.91519041	     -6.64697307	     -9.11257610	      1.60847470	     -3.31942319	     46.67082404	     11.39477323	     64.40102785	    127.58689678	    104.46903156	     59.02583271	      5.14567941	     67.95188448	    125.00638334	     91.64877039
      0.03333330	     -3.55585653	     -1.10113597	     -3.59296400	      0.17455479	      0.93842224	     -0.14399401	     27.82609597	     -5.34096602	      0.23140573	      3.89588303	      0.06799599	     -5.73648603	     -4.22971917	     -6.88462348	     13.27201078	      2.94114296	      4.25380703	     22.56964733	      0.39391466	      4.44647825	     -9.44691295	     -6.88462348	     -8.37721938	      0.87540532	     -2.05137632	     45.90223139	     10.86507548	     65.70145053	    128.36754132	    104.64216373	     59.67505305	      4.15470720	     68.43478175	    126.59090342	     85.79688436
      0.05000000	     -3.37981339	     -1.10669282	     -3.91730493	      0.17543645	      0.93855312	     -0.14456574	     27.47409098	     -5.11341725	      0.18405731	      3.67327784	      0.06411079	     -6.24649164	     -3.67205585	     -6.95487973	     12.90827745	      3.04423158	      4.97554375	     21.97429971	      0.38352388	      4.39793345	    -10.18650963	     -6.95487973	     -8.25116849	      0.77353447	     -1.36478696	     45.58289163	     10.47567002	     67.70024067	    128.38256858	    103.09219145	     59.84502815	      4.46362355	     68.84515480	    126.64195839	     83.90089315
      0.06666670	     -3.43674818	     -1.44417219	     -3.88781293	      0.17511131	      0.93783203	     -0.14542373	     27.42516879	     -4.74115845	      0.42642482	      3.71713000	      0.06487616	     -6.25938354	     -4.04397440	     -7.01739950	     13.07251833	      2.75930058	      5.30986080	     22.03507016	      0.38458453	      4.11704644	    -11.42446285	     -7.01739950	     -8.24230073	      1.44694623	     -0.95469557	     45.20111336	     10.08655186	     69.00188662	    128.02690696	    101.64394807	     59.83977528	      5.09363200	     69.19692125	    126.61292597	     81.56560347
      0.08333330	     -3.28181207	     -1.72085942	     -3.74809039	      0.17577373	      0.93847211	     -0.14557226	     27.13812789	     -4.44668773	      0.58868328	      3.91608014	      0.06834849	     -6.22754678	     -4.65868079	     -7.06825594	     12.85615971	      2.47419224	      5.84831526	     22.03030809	      0.38450141	      4.16642629	    -11.98799092	     -7.06825594	     -8.22440134	      1.78682353	     -0.88382559	     44.96418713	     10.02726459	     69.71670366	    127.63471480	    100.35182595	     59.94576774	      5.74295345	     69.57758813	    126.09308735	     79.34539277
      0.10000000	     -3.15854986	     -1.97124203	     -3.66335159	      0.17641526	      0.93860589	     -0.14549381	     27.01873671	     -4.26988836	      0.69518311	      4.04967808	      0.07068022	     -6.14952261	     -5.30710036	     -7.21843035	     12.69121232	      2.19032939	      6.07274788	     22.04752760	      0.38480195	      4.25534502	    -12.19041626	     -7.21843035	     -8.17233872	      2.05155623	     -0.83651919	     44.66406623	     10.00636367	     69.83985629	    127.38875286	    100.80010789	     60.19869193	      6.15507236	     70.12696324	    125.67626625	     70.92274499
      0.11666670	     -3.07834208	     -2.21296356	     -3.57179073	      0.17570576	      0.93791769	     -0.14526918	     26.92385011	     -4.05882703	      0.54130138	      4.23255442	      0.07387201	     -6.04165239	     -5.66464844	     -7.24702499	     12.63851807	      1.88167278	      6.08987894	     22.07929944	      0.38535647	      4.01483683	    -12.47890333	     -7.24702499	     -8.19649264	      2.24617622	     -0.89868870	     44.49418010	      9.99356740	     69.66096839	    126.78954035	     99.19981829	     60.32984986	      6.38063459	     70.37488888	    125.70294175	     70.09564135
      0.13333330	     -2.96954494	     -2.37988814	     -3.48604029	      0.17611627	      0.93887162	     -0.14509260	     26.78126051	     -3.95426035	      0.25028483	      4.35906672	      0.07608007	     -6.09154374	     -6.08569549	     -7.27517205	     12.46852918	      1.66714727	      6.05886773	     21.87832339	      0.38184878	      3.58514039	    -12.57536233	     -7.27517205	     -8.26953483	      2.44794845	     -0.95687547	     44.04670807	      9.90709274	     69.07080571	    126.34151324	     97.54473226	     60.25620129	      6.27686151	     70.58715661	    125.91614459	     69.03501891
      0.15000000	     -2.73018396	     -2.55446747	     -3.37408457	      0.17810871	      0.94175571	     -0.14550159	     26.35159093	     -3.86801964	      0.01119298	      4.31050339	      0.07523248	     -6.31238762	     -6.28626237	     -7.29680541	     11.97485190	      1.47336581	      6.15962372	     21.39822656	      0.37346951	      2.84566586	    -12.80519910	     -7.29680541	     -8.49396450	      2.59281094	     -1.10743462	     43.69473656	      9.84151652	     68.69599503	    125.88812081	     96.50304145	     60.00868468	      6.04736615	     70.74972298	    125.79150116	     68.00989240
      0.16666670	     -2.90135245	     -2.79309321	     -3.38065042	      0.17671524	      0.94101540	     -0.14558348	     26.43806593	     -3.70434600	     -0.51756967	      4.34340730	      0.07580676	     -6.53529576	     -6.26101658	     -7.31500037	     12.01079035	      1.15641951	      5.93688651	     21.15397801	      0.36920657	      2.27146060	    -12.52035739	     -7.31500037	     -8.29330126	      2.83549101	     -1.20282339	     43.22261590	      9.85424035	     68.45917951	    125.81886016	     95.07315330	     59.51203272	      6.02701795	     70.93820113	    125.95357565	     67.38744767
      0.18333330	     -2.55716599	     -2.92733927	     -3.50479779	      0.17611511	      0.94277534	     -0.14585799	     26.17635542	     -3.66681457	     -0.18276790	      4.26699267	      0.07447307	     -7.06629650	     -6.66323846	     -7.33701417	     11.64080284	      1.12722340	      6.16503306	     21.00576423	      0.36661975	      1.69884441	    -12.99172349	     -7.33701417	     -8.89467052	      3.00789522	     -1.06815721	     43.72098593	     10.05258390	     68.67049002	    125.74501713	     93.87063834	     59.57229785	      5.86929008	     71.07734222	    126.46677373	     66.42816524
      0.20000000	     -2.55590892	     -3.05995840	     -3.54247526	      0.17693433	      0.94341670	     -0.14527326	     26.06894099	     -3.59006393	      0.05712481	      3.85265115	      0.06724145	     -7.33787232	     -6.51834179	     -7.35006975	     11.45957540	      1.04656072	      6.45832378	     20.77505161	      0.36259305	      1.78537223	    -13.06769874	     -7.35006975	     -9.00602299	      3.21428155	     -1.01347844	     43.73960665	     10.21385779	     68.80451076	    125.72213235	     93.44616077	     59.25051367	      5.70514345	     71.03574390	    126.86789244	     65.82923134
      0.21666670	     -2.52589928	     -3.27123538	     -3.61984190	      0.17541369	      0.94350940	     -0.14485900	     25.98706915	     -3.43813206	      0.18746949	      3.72368621	      0.06499058	     -7.80148984	     -6.68958893	     -7.36832521	     11.36667332	      0.88684920	      6.79460343	     20.77288956	      0.36255532	      1.72458580	    -13.17324453	     -7.36832521	     -9.24299265	      3.50348602	     -0.86834696	     44.01801551	     10.39254049	     68.87066396	    125.60437420	     92.54621489	     59.17500013	      5.70707780	     70.99924813	    127.19920061	     65.21700781
      0.23333330	     -2.77441095	     -3.35836590	     -3.50537244	      0.17778000	      0.94366450	     -0.14480615	     26.07896200	     -3.46819422	      0.16984457	      3.41182284	      0.05954754	     -7.87251613	     -6.15905748	     -7.38694550	     11.38794484	      0.84026560	      7.03872545	     20.54237385	      0.35853206	      2.13954861	    -13.01232625	     -7.38694550	     -8.98405978	      3.65466668	     -0.91814226	     43.47366447	     10.50086644	     69.04421299	    125.91606282	     90.49032622	     58.70172597	      5.73863722	     71.09310350	    127.74275686	     64.71013241
      0.25000000	     -2.46290807	     -3.48587162	     -3.49034150	      0.17760455	      0.94349899	     -0.14451092	     25.64627184	     -3.42090620	      0.61797942	      2.88613107	      0.05037249	     -7.67422935	     -5.68038449	     -7.39997548	     10.63998390	      0.85148518	      7.73823752	     20.24895989	      0.35341102	      3.06099844	    -13.42946813	     -7.39997548	     -9.34702165	      3.68629290	     -1.03070926	     43.53267250	     10.69422843	     69.10314669	    125.87314097	     90.01523623	     58.91238904	      5.71790192	     71.17132781	    127.85976525	     64.30922948
